<svg xmlns="http://www.w3.org/2000/svg" xmlns:xlink="http://www.w3.org/1999/xlink" width="40" zoomAndPan="magnify" viewBox="0 0 30 30.000001" height="40" preserveAspectRatio="xMidYMid meet" version="1.0"><defs><clipPath id="78195dae74"><path d="M 5.253906 26 L 21 26 L 21 29.03125 L 5.253906 29.03125 Z M 5.253906 26 " clip-rule="nonzero"/></clipPath><clipPath id="c6b9c4518e"><path d="M 12 7 L 24.851562 7 L 24.851562 25 L 12 25 Z M 12 7 " clip-rule="nonzero"/></clipPath></defs><path fill="#ffffff" d="M 19.054688 2.113281 L 16.304688 0.925781 L 16.691406 0.0273438 L 19.445312 1.214844 Z M 16.714844 0.761719 L 18.894531 1.703125 L 19.035156 1.375 L 16.859375 0.4375 Z M 16.714844 0.761719 " fill-opacity="1" fill-rule="nonzero"/><path fill="#ffffff" d="M 17.675781 4.542969 L 15.480469 3.597656 L 16.597656 1.011719 L 18.789062 1.953125 Z M 16.03125 3.378906 L 17.457031 3.996094 L 18.242188 2.171875 L 16.816406 1.558594 Z M 16.03125 3.378906 " fill-opacity="1" fill-rule="nonzero"/><path fill="#ffffff" d="M 17.785156 5.964844 L 14.320312 4.53125 L 14.621094 4.28125 L 15.734375 3.34375 L 17.734375 4.195312 Z M 14.914062 4.441406 L 17.457031 5.492188 L 17.429688 4.402344 L 15.789062 3.707031 Z M 14.914062 4.441406 " fill-opacity="1" fill-rule="nonzero"/><path fill="#ffffff" d="M 12.886719 15.53125 L 10.960938 14.738281 L 10.808594 13.34375 L 10.859375 13.011719 L 14.308594 14.421875 Z M 11.34375 14.445312 L 12.820312 15.050781 L 13.484375 14.535156 L 11.253906 13.625 Z M 11.34375 14.445312 " fill-opacity="1" fill-rule="nonzero"/><path fill="#ffffff" d="M 11.757812 18.269531 L 9.714844 17.375 L 10.960938 14.40625 L 13.046875 15.265625 Z M 10.257812 17.15625 L 11.539062 17.722656 L 12.496094 15.488281 L 11.183594 14.945312 Z M 10.257812 17.15625 " fill-opacity="1" fill-rule="nonzero"/><path fill="#ffffff" d="M 11.03125 19.390625 L 9.605469 18.765625 L 9.671875 17.597656 L 9.671875 17.28125 L 11.867188 18.242188 Z M 10.039062 18.503906 L 10.894531 18.875 L 11.226562 18.414062 L 10.074219 17.910156 Z M 10.039062 18.503906 " fill-opacity="1" fill-rule="nonzero"/><path fill="#ffffff" d="M 14.972656 21.765625 L 7.367188 21.765625 L 7.367188 20.5 L 14.972656 20.5 Z M 7.886719 21.246094 L 14.453125 21.246094 L 14.453125 21.019531 L 7.886719 21.019531 Z M 7.886719 21.246094 " fill-opacity="1" fill-rule="nonzero"/><path fill="#ffffff" d="M 16.859375 9.226562 C 16.679688 9.222656 16.507812 9.1875 16.34375 9.117188 C 16.175781 9.046875 16.03125 8.949219 15.90625 8.820312 C 15.78125 8.695312 15.683594 8.546875 15.617188 8.382812 C 15.550781 8.214844 15.519531 8.042969 15.519531 7.863281 C 15.519531 7.683594 15.554688 7.511719 15.625 7.347656 C 15.695312 7.183594 15.792969 7.039062 15.921875 6.910156 C 16.046875 6.785156 16.195312 6.6875 16.359375 6.621094 C 16.523438 6.554688 16.699219 6.519531 16.875 6.519531 C 17.054688 6.519531 17.226562 6.554688 17.394531 6.625 C 17.558594 6.695312 17.703125 6.792969 17.832031 6.917969 C 17.957031 7.046875 18.054688 7.191406 18.121094 7.355469 C 18.191406 7.523438 18.226562 7.695312 18.226562 7.875 C 18.222656 8.054688 18.1875 8.226562 18.117188 8.394531 C 18.046875 8.558594 17.949219 8.707031 17.820312 8.832031 C 17.691406 8.960938 17.546875 9.058594 17.378906 9.125 C 17.210938 9.191406 17.039062 9.226562 16.859375 9.226562 Z M 16.859375 7.039062 C 16.628906 7.042969 16.433594 7.128906 16.273438 7.292969 C 16.113281 7.457031 16.035156 7.652344 16.039062 7.882812 C 16.042969 8.113281 16.125 8.304688 16.289062 8.46875 C 16.453125 8.628906 16.648438 8.707031 16.875 8.707031 C 17.105469 8.703125 17.300781 8.621094 17.460938 8.460938 C 17.625 8.296875 17.703125 8.101562 17.703125 7.875 C 17.703125 7.640625 17.617188 7.445312 17.453125 7.28125 C 17.289062 7.121094 17.089844 7.039062 16.859375 7.039062 Z M 16.859375 7.039062 " fill-opacity="1" fill-rule="nonzero"/><path fill="#ffffff" d="M 16.316406 25.5625 C 16.1875 25.5625 16.0625 25.535156 15.945312 25.488281 C 15.824219 25.4375 15.71875 25.367188 15.628906 25.277344 C 15.539062 25.183594 15.46875 25.078125 15.417969 24.960938 C 15.367188 24.839844 15.34375 24.71875 15.34375 24.589844 C 15.34375 24.460938 15.367188 24.335938 15.417969 24.214844 C 15.46875 24.097656 15.539062 23.992188 15.628906 23.902344 C 15.71875 23.808594 15.824219 23.738281 15.945312 23.691406 C 16.0625 23.640625 16.1875 23.617188 16.316406 23.617188 C 16.445312 23.617188 16.570312 23.640625 16.691406 23.691406 C 16.808594 23.742188 16.914062 23.8125 17.003906 23.902344 C 17.09375 23.992188 17.164062 24.097656 17.214844 24.21875 C 17.265625 24.335938 17.289062 24.460938 17.289062 24.589844 C 17.289062 24.71875 17.261719 24.84375 17.214844 24.960938 C 17.164062 25.082031 17.09375 25.1875 17.003906 25.277344 C 16.910156 25.367188 16.804688 25.4375 16.6875 25.488281 C 16.570312 25.535156 16.445312 25.5625 16.316406 25.5625 Z M 16.316406 24.136719 C 16.191406 24.136719 16.085938 24.179688 15.996094 24.269531 C 15.910156 24.359375 15.863281 24.464844 15.863281 24.589844 C 15.863281 24.714844 15.910156 24.820312 15.996094 24.90625 C 16.085938 24.996094 16.191406 25.039062 16.316406 25.039062 C 16.441406 25.039062 16.546875 24.996094 16.636719 24.90625 C 16.722656 24.820312 16.769531 24.714844 16.769531 24.589844 C 16.765625 24.464844 16.722656 24.359375 16.636719 24.269531 C 16.546875 24.179688 16.441406 24.136719 16.316406 24.136719 Z M 16.316406 24.136719 " fill-opacity="1" fill-rule="nonzero"/><g clip-path="url(#78195dae74)"><path fill="#ffffff" d="M 20.042969 29.003906 L 5.253906 29.003906 L 5.253906 26.4375 L 20.042969 26.4375 Z M 5.773438 28.484375 L 19.519531 28.484375 L 19.519531 26.960938 L 5.773438 26.960938 Z M 5.773438 28.484375 " fill-opacity="1" fill-rule="nonzero"/></g><path fill="#ffffff" d="M 14.296875 14.429688 L 10.84375 13.03125 L 14.320312 4.476562 L 17.78125 5.929688 L 17.339844 7.09375 L 17.125 7.054688 C 17.03125 7.035156 16.191406 6.910156 16.019531 7.78125 C 16.019531 7.855469 16.015625 8.304688 16.335938 8.527344 L 16.503906 8.640625 Z M 11.523438 12.742188 L 14 13.746094 L 15.878906 8.820312 C 15.453125 8.390625 15.5 7.757812 15.503906 7.730469 L 15.507812 7.703125 C 15.585938 7.289062 15.773438 6.976562 16.074219 6.769531 C 16.398438 6.546875 16.769531 6.515625 17.003906 6.519531 L 17.117188 6.214844 L 14.609375 5.164062 Z M 11.523438 12.742188 " fill-opacity="1" fill-rule="nonzero"/><g clip-path="url(#c6b9c4518e)"><path fill="#ffffff" d="M 14.664062 24.851562 C 14.324219 24.851562 13.226562 24.800781 12.957031 24.164062 C 12.703125 23.554688 12.792969 21.703125 12.800781 21.492188 L 12.816406 21.222656 L 13.085938 21.246094 C 13.121094 21.25 16.539062 21.542969 18.132812 20.242188 C 18.816406 19.679688 19.398438 18.449219 19.769531 16.769531 C 20.082031 15.359375 20.148438 14.03125 20.035156 13.609375 C 19.785156 12.707031 19.273438 11.457031 17.699219 11.085938 C 16.085938 10.699219 15.550781 10.710938 15.542969 10.710938 L 15.15625 10.722656 L 15.292969 10.355469 L 16.082031 8.289062 L 16.363281 8.546875 C 16.371094 8.554688 16.65625 8.796875 17.117188 8.667969 C 17.523438 8.554688 17.660156 8.15625 17.699219 7.988281 L 17.699219 7.976562 C 17.707031 7.894531 17.703125 7.808594 17.691406 7.726562 L 17.691406 7.710938 C 17.679688 7.617188 17.644531 7.53125 17.585938 7.457031 L 17.253906 7.035156 L 17.847656 7.035156 L 17.976562 7.070312 C 18.871094 7.347656 19.726562 7.71875 20.542969 8.175781 C 22.339844 9.179688 23.5625 10.445312 24.078125 11.839844 C 24.738281 13.617188 24.28125 16.261719 23.78125 18.164062 C 23.265625 20.113281 22.515625 21.988281 22.296875 22.179688 C 22.277344 22.199219 22.230469 22.25 22.175781 22.304688 C 21.714844 22.792969 20.304688 24.285156 17.765625 24.765625 L 17.53125 24.808594 L 17.464844 24.582031 C 17.257812 23.863281 16.960938 23.148438 16.832031 23.050781 C 16.699219 22.953125 16.179688 22.84375 15.753906 22.953125 C 15.550781 23.003906 15.417969 23.097656 15.359375 23.226562 C 15.089844 23.820312 15 24.609375 15 24.617188 L 14.976562 24.84375 L 14.75 24.851562 Z M 13.308594 21.785156 C 13.285156 22.542969 13.296875 23.628906 13.4375 23.960938 C 13.535156 24.195312 14.074219 24.308594 14.511719 24.324219 C 14.5625 24.023438 14.671875 23.472656 14.882812 23.007812 C 15.007812 22.734375 15.261719 22.539062 15.617188 22.449219 C 16.171875 22.304688 16.863281 22.429688 17.136719 22.632812 C 17.441406 22.855469 17.742188 23.722656 17.894531 24.203125 C 19.433594 23.863281 20.734375 23.109375 21.796875 21.945312 C 21.859375 21.878906 21.902344 21.832031 21.9375 21.800781 C 22.089844 21.578125 22.789062 19.914062 23.304688 17.910156 C 23.765625 16.117188 24.1875 13.640625 23.585938 12.015625 C 22.632812 9.453125 19.339844 8.089844 18.214844 7.695312 C 18.234375 7.832031 18.230469 7.96875 18.207031 8.101562 C 18.144531 8.363281 17.929688 8.980469 17.257812 9.167969 C 16.941406 9.261719 16.628906 9.246094 16.320312 9.117188 L 15.90625 10.210938 C 16.246094 10.25 16.847656 10.34375 17.820312 10.578125 C 19.203125 10.90625 20.089844 11.851562 20.535156 13.46875 C 20.828125 14.535156 20.242188 19.1875 18.464844 20.640625 C 16.964844 21.863281 14.195312 21.828125 13.3125 21.78125 Z M 21.929688 21.808594 Z M 21.953125 21.785156 Z M 21.953125 21.785156 " fill-opacity="1" fill-rule="nonzero"/></g><path fill="#ffffff" d="M 18.226562 26.960938 L 14.328125 26.960938 L 14.484375 24.546875 C 14.550781 24.152344 14.726562 23.207031 14.917969 22.957031 L 14.953125 22.90625 C 15.121094 22.683594 15.3125 22.429688 15.921875 22.394531 C 16.25 22.378906 17.046875 22.382812 17.304688 22.808594 C 17.605469 23.320312 17.828125 23.867188 17.96875 24.445312 C 18.167969 25.242188 18.21875 26.628906 18.21875 26.691406 Z M 14.882812 26.4375 L 17.683594 26.4375 C 17.660156 25.996094 17.597656 25.113281 17.460938 24.570312 C 17.332031 24.042969 17.132812 23.546875 16.859375 23.078125 C 16.816406 23.007812 16.503906 22.886719 15.945312 22.914062 C 15.582031 22.933594 15.503906 23.035156 15.367188 23.21875 L 15.328125 23.269531 C 15.246094 23.390625 15.09375 24.058594 14.996094 24.617188 Z M 14.882812 26.4375 " fill-opacity="1" fill-rule="nonzero"/></svg>