<svg xmlns="http://www.w3.org/2000/svg" xmlns:xlink="http://www.w3.org/1999/xlink" width="40" zoomAndPan="magnify" viewBox="0 0 30 30.000001" height="40" preserveAspectRatio="xMidYMid meet" version="1.0"><defs><clipPath id="cb4028e0c6"><path d="M 1.460938 0.382812 L 28.3125 0.382812 L 28.3125 28.691406 L 1.460938 28.691406 Z M 1.460938 0.382812 " clip-rule="nonzero"/></clipPath><clipPath id="aae5012ca8"><path d="M 13 0.382812 L 16 0.382812 L 16 1 L 13 1 Z M 13 0.382812 " clip-rule="nonzero"/></clipPath><clipPath id="e5cbb8d215"><path d="M 18 27 L 20 27 L 20 28.691406 L 18 28.691406 Z M 18 27 " clip-rule="nonzero"/></clipPath></defs><g clip-path="url(#cb4028e0c6)"><path fill="#ffffff" d="M 27.285156 16.242188 C 26.441406 15.546875 25.449219 15.003906 24.507812 14.457031 C 24.023438 14.175781 23.527344 13.894531 23.03125 13.632812 C 23.617188 12.945312 24.160156 12.226562 24.664062 11.464844 C 25.785156 9.761719 27.074219 7.367188 25.585938 5.480469 C 24.894531 4.601562 23.8125 4.402344 22.785156 4.738281 C 21.675781 5.105469 20.628906 5.757812 19.621094 6.332031 C 19.117188 6.617188 18.617188 6.917969 18.121094 7.226562 C 18.121094 7.226562 18.121094 7.226562 18.113281 7.222656 C 17.765625 6.269531 17.359375 5.332031 16.875 4.421875 C 15.945312 2.683594 14.535156 0.589844 12.265625 0.902344 C 10.824219 1.105469 10.320312 2.214844 10.140625 3.464844 C 9.964844 3.441406 9.785156 3.445312 9.617188 3.492188 C 9.058594 3.636719 8.800781 4.167969 8.738281 4.710938 C 8.683594 5.238281 9.070312 5.664062 9.5 5.90625 C 9.667969 6 9.855469 6.078125 10.042969 6.132812 C 10.042969 7.035156 10.066406 7.945312 10.117188 8.851562 C 9.445312 8.703125 8.777344 8.582031 8.105469 8.464844 C 6.964844 8.269531 5.726562 7.992188 4.554688 8.078125 C 3.558594 8.152344 2.507812 8.578125 2.003906 9.5 C 1.460938 10.503906 1.816406 11.628906 2.445312 12.496094 C 3.632812 14.132812 5.503906 15.328125 7.210938 16.359375 C 6.917969 16.683594 6.632812 17.015625 6.359375 17.347656 C 6.226562 17.503906 6.089844 17.664062 5.957031 17.828125 C 5.917969 17.804688 5.882812 17.789062 5.84375 17.769531 C 5.40625 17.585938 4.875 17.542969 4.4375 17.742188 C 3.933594 17.96875 3.648438 18.605469 3.851562 19.125 C 3.960938 19.414062 4.167969 19.664062 4.394531 19.886719 C 4.335938 19.976562 4.28125 20.066406 4.230469 20.15625 C 3.703125 21.097656 3.476562 22.308594 4.050781 23.289062 C 4.574219 24.160156 5.574219 24.472656 6.542969 24.441406 C 7.53125 24.40625 8.5 24.105469 9.410156 23.746094 C 10.441406 23.34375 11.449219 22.867188 12.425781 22.347656 C 12.511719 22.296875 12.601562 22.25 12.691406 22.199219 C 12.921875 22.867188 13.167969 23.527344 13.425781 24.179688 C 13.863281 25.28125 14.265625 26.507812 15.066406 27.402344 C 15.734375 28.148438 16.808594 28.628906 17.804688 28.320312 C 18.683594 28.054688 19.25 27.28125 19.597656 26.46875 C 20.296875 24.851562 20.4375 22.941406 20.476562 21.160156 C 21.195312 21.269531 21.917969 21.355469 22.644531 21.390625 C 22.800781 21.894531 23.199219 22.324219 23.695312 22.507812 C 24.40625 22.773438 25.289062 22.414062 25.574219 21.695312 C 25.578125 21.695312 25.578125 21.695312 25.578125 21.691406 C 25.703125 21.523438 25.769531 21.339844 25.78125 21.148438 C 27.027344 20.816406 28.109375 20.105469 28.367188 18.691406 C 28.53125 17.699219 28.03125 16.847656 27.285156 16.242188 Z M 13.226562 20.828125 C 13.023438 20.207031 12.832031 19.582031 12.652344 18.953125 C 13.464844 19.253906 14.285156 19.539062 15.101562 19.804688 C 14.472656 20.140625 13.847656 20.488281 13.226562 20.828125 Z M 10.984375 10.011719 C 11.757812 10.1875 12.53125 10.390625 13.292969 10.601562 C 12.597656 11.152344 11.914062 11.722656 11.25 12.3125 C 11.136719 11.542969 11.050781 10.777344 10.984375 10.011719 Z M 18.683594 10.96875 C 18.746094 11.1875 18.800781 11.402344 18.851562 11.628906 C 17.632812 11.105469 16.394531 10.644531 15.140625 10.222656 C 16.011719 9.554688 16.910156 8.921875 17.832031 8.328125 C 18.164062 9.199219 18.445312 10.082031 18.683594 10.96875 Z M 19.09375 12.625 C 19.296875 13.511719 19.472656 14.394531 19.648438 15.285156 C 19.652344 15.644531 19.648438 16 19.636719 16.367188 C 19.636719 16.367188 19.636719 16.367188 19.636719 16.371094 C 18.695312 17.273438 17.710938 18.125 16.714844 18.96875 C 16.390625 19.148438 16.058594 19.316406 15.726562 19.484375 C 14.640625 19.171875 13.566406 18.808594 12.503906 18.433594 C 12.050781 16.769531 11.683594 15.089844 11.40625 13.390625 C 12.335938 12.523438 13.292969 11.695312 14.285156 10.90625 C 15.917969 11.386719 17.527344 11.957031 19.09375 12.625 Z M 11.421875 17.882812 C 10.496094 17.324219 9.597656 16.707031 8.667969 16.160156 C 8.660156 16.152344 8.65625 16.152344 8.648438 16.148438 C 9.304688 15.441406 9.976562 14.753906 10.664062 14.085938 C 10.867188 15.367188 11.121094 16.632812 11.421875 17.882812 Z M 19.621094 17.070312 C 19.59375 17.789062 19.5625 18.5 19.5625 19.210938 C 19.5625 19.585938 19.5625 19.960938 19.554688 20.335938 C 18.515625 20.171875 17.492188 19.949219 16.488281 19.6875 C 17.558594 18.847656 18.605469 17.984375 19.621094 17.070312 Z M 19.640625 12.859375 C 20.414062 13.195312 21.171875 13.554688 21.921875 13.941406 C 21.367188 14.601562 20.785156 15.234375 20.175781 15.84375 C 20.019531 14.84375 19.84375 13.847656 19.640625 12.859375 Z M 20.988281 6.453125 C 21.867188 5.972656 23.046875 5.144531 24.101562 5.367188 C 25.019531 5.570312 25.488281 6.597656 25.496094 7.460938 C 25.5 8.558594 24.933594 9.574219 24.390625 10.484375 C 23.808594 11.464844 23.148438 12.414062 22.429688 13.3125 C 21.445312 12.796875 20.441406 12.316406 19.429688 11.875 C 19.375 11.621094 19.3125 11.363281 19.25 11.113281 C 19 10.054688 18.710938 9.007812 18.371094 7.988281 C 19.226562 7.445312 20.097656 6.941406 20.988281 6.453125 Z M 10.855469 8.144531 C 10.828125 7.488281 10.816406 6.839844 10.8125 6.191406 C 10.945312 6.152344 11.074219 6.089844 11.191406 5.996094 C 11.640625 5.796875 12.042969 5.371094 11.902344 4.847656 C 11.839844 4.617188 11.707031 4.410156 11.550781 4.234375 C 11.472656 4.152344 11.386719 4.074219 11.296875 4.007812 C 11.269531 3.984375 11.238281 3.960938 11.203125 3.933594 L 11.179688 3.910156 C 11.167969 3.898438 11.152344 3.890625 11.140625 3.882812 C 11.089844 3.84375 11.039062 3.8125 10.984375 3.777344 C 10.945312 3.75 10.90625 3.726562 10.863281 3.703125 C 10.90625 3.082031 11.046875 2.460938 11.496094 2.050781 C 12.175781 1.429688 13.273438 1.582031 14.003906 2.03125 C 14.511719 2.335938 14.921875 2.773438 15.261719 3.257812 C 15.269531 3.261719 15.269531 3.265625 15.273438 3.265625 C 14.90625 3.058594 14.519531 2.871094 14.125 2.707031 C 14.03125 2.667969 13.964844 2.832031 14.058594 2.871094 C 14.523438 3.078125 14.976562 3.324219 15.402344 3.601562 C 15.476562 3.648438 15.542969 3.703125 15.617188 3.753906 C 15.726562 3.929688 15.835938 4.109375 15.933594 4.285156 C 16.308594 4.925781 16.65625 5.582031 16.972656 6.257812 C 16.972656 6.257812 16.972656 6.261719 16.976562 6.261719 C 16.894531 6.203125 16.8125 6.140625 16.730469 6.078125 C 16.070312 5.613281 15.371094 5.234375 14.613281 4.953125 C 14.574219 4.9375 14.546875 5.003906 14.585938 5.027344 C 15.269531 5.382812 15.941406 5.789062 16.566406 6.246094 C 16.792969 6.410156 17.003906 6.582031 17.210938 6.761719 C 17.335938 7.03125 17.445312 7.304688 17.558594 7.578125 C 16.410156 8.308594 15.285156 9.089844 14.199219 9.914062 C 13.332031 9.644531 12.453125 9.40625 11.574219 9.1875 C 11.359375 9.128906 11.140625 9.082031 10.929688 9.03125 C 10.890625 8.734375 10.871094 8.4375 10.855469 8.144531 Z M 6.964844 15.117188 C 6.957031 15.117188 6.957031 15.113281 6.953125 15.113281 C 6.917969 15.070312 6.878906 15.039062 6.847656 15 C 6.722656 14.863281 6.601562 14.730469 6.488281 14.589844 C 6.246094 14.292969 6.023438 13.984375 5.816406 13.660156 C 5.425781 13.039062 5.097656 12.371094 4.773438 11.71875 C 4.761719 11.695312 4.734375 11.710938 4.742188 11.734375 C 4.875 12.492188 5.175781 13.183594 5.582031 13.839844 C 5.714844 14.058594 5.859375 14.265625 6.007812 14.472656 C 5.472656 14.101562 4.960938 13.707031 4.472656 13.285156 C 4.347656 13.179688 4.230469 13.074219 4.109375 12.960938 C 4.007812 12.699219 3.917969 12.433594 3.832031 12.164062 C 3.660156 11.605469 3.542969 11.019531 3.4375 10.441406 C 3.425781 10.378906 3.328125 10.394531 3.328125 10.457031 C 3.300781 11.066406 3.386719 11.65625 3.53125 12.25 C 3.546875 12.316406 3.570312 12.378906 3.585938 12.441406 C 3.289062 12.109375 3.03125 11.757812 2.847656 11.359375 C 2.410156 10.394531 2.859375 9.503906 3.839844 9.164062 C 4.863281 8.8125 6.085938 9.101562 7.125 9.257812 C 8.152344 9.417969 9.171875 9.605469 10.179688 9.832031 C 10.257812 10.882812 10.363281 11.941406 10.507812 12.988281 C 9.886719 13.554688 9.289062 14.136719 8.707031 14.734375 C 8.410156 15.039062 8.117188 15.347656 7.835938 15.660156 C 7.539062 15.480469 7.25 15.300781 6.964844 15.117188 Z M 8.183594 23.167969 C 7.453125 23.398438 6.621094 23.601562 5.855469 23.449219 C 4.8125 23.242188 4.457031 22.246094 4.734375 21.292969 C 4.824219 21.003906 4.949219 20.722656 5.105469 20.453125 C 5.300781 20.550781 5.511719 20.609375 5.742188 20.597656 C 6.59375 20.558594 6.859375 19.613281 6.707031 18.902344 C 6.707031 18.890625 6.707031 18.878906 6.699219 18.875 C 6.679688 18.746094 6.644531 18.621094 6.59375 18.503906 C 7.058594 17.933594 7.53125 17.386719 8.015625 16.835938 C 8.382812 17.050781 8.746094 17.246094 9.121094 17.429688 C 9.121094 17.472656 9.140625 17.519531 9.191406 17.542969 C 9.984375 17.890625 10.785156 18.21875 11.589844 18.539062 C 11.769531 19.25 11.96875 19.960938 12.183594 20.660156 C 12.246094 20.875 12.3125 21.082031 12.386719 21.289062 C 11.039062 22.027344 9.644531 22.722656 8.183594 23.167969 Z M 16.394531 27.261719 C 15.421875 26.75 15.011719 25.589844 14.613281 24.632812 C 14.214844 23.667969 13.851562 22.695312 13.515625 21.714844 C 13.847656 21.523438 14.171875 21.320312 14.496094 21.109375 C 14.535156 21.132812 14.585938 21.136719 14.625 21.101562 C 15.078125 20.765625 15.539062 20.425781 15.984375 20.085938 C 16.007812 20.089844 16.023438 20.09375 16.046875 20.105469 C 17.199219 20.453125 18.367188 20.761719 19.542969 20.992188 C 19.535156 21.222656 19.53125 21.449219 19.511719 21.679688 C 19.511719 21.679688 19.511719 21.6875 19.511719 21.6875 C 19.390625 21.976562 19.246094 22.269531 19.078125 22.535156 C 18.988281 22.683594 18.886719 22.816406 18.78125 22.953125 C 18.78125 22.945312 18.773438 22.941406 18.769531 22.941406 C 18.753906 22.941406 18.753906 22.960938 18.761719 22.96875 C 18.472656 23.332031 18.140625 23.664062 17.839844 24.015625 C 17.824219 24.03125 17.839844 24.070312 17.867188 24.058594 C 18.488281 23.808594 18.960938 23.277344 19.335938 22.738281 C 19.378906 22.671875 19.417969 22.605469 19.457031 22.535156 C 19.457031 22.535156 19.457031 22.542969 19.457031 22.542969 C 19.464844 22.546875 19.457031 22.546875 19.457031 22.546875 C 19.414062 23.109375 19.339844 23.667969 19.238281 24.222656 C 19.105469 24.507812 18.941406 24.789062 18.757812 25.039062 C 18.371094 25.570312 17.863281 26.007812 17.363281 26.433594 C 17.339844 26.453125 17.363281 26.492188 17.390625 26.480469 C 18.050781 26.265625 18.578125 25.808594 19.007812 25.269531 C 18.632812 26.558594 17.863281 28.042969 16.394531 27.261719 Z M 26.867188 19.78125 C 26.496094 20.117188 26.046875 20.324219 25.566406 20.453125 C 25.503906 20.359375 25.421875 20.269531 25.332031 20.191406 C 24.917969 19.835938 24.347656 19.628906 23.796875 19.667969 C 23.535156 19.691406 23.269531 19.753906 23.046875 19.898438 C 22.777344 20.078125 22.621094 20.335938 22.570312 20.644531 C 21.871094 20.617188 21.171875 20.558594 20.476562 20.476562 L 20.476562 20.453125 C 20.480469 19.707031 20.472656 18.96875 20.425781 18.226562 C 20.464844 18.195312 20.492188 18.164062 20.488281 18.105469 C 20.421875 17.5625 20.347656 17.015625 20.269531 16.472656 C 21.027344 15.773438 21.746094 15.054688 22.4375 14.300781 C 22.480469 14.339844 22.53125 14.378906 22.578125 14.417969 C 22.835938 14.65625 23.074219 14.921875 23.304688 15.191406 C 23.765625 15.714844 24.15625 16.316406 24.503906 16.925781 C 24.535156 16.980469 24.632812 16.941406 24.609375 16.882812 C 24.492188 16.539062 24.359375 16.203125 24.171875 15.890625 C 23.988281 15.570312 23.773438 15.269531 23.550781 14.984375 C 23.460938 14.863281 23.359375 14.753906 23.261719 14.640625 C 23.261719 14.640625 23.265625 14.640625 23.265625 14.640625 C 23.785156 14.921875 24.289062 15.21875 24.792969 15.519531 C 25.03125 15.773438 25.253906 16.039062 25.472656 16.316406 C 25.925781 16.890625 26.328125 17.519531 26.6875 18.15625 C 26.714844 18.203125 26.792969 18.175781 26.769531 18.125 C 26.496094 17.425781 26.144531 16.785156 25.703125 16.179688 C 25.644531 16.101562 25.585938 16.035156 25.527344 15.957031 C 25.527344 15.957031 25.535156 15.960938 25.535156 15.960938 C 26.167969 16.332031 26.828125 16.742188 27.269531 17.300781 C 27.90625 18.113281 27.578125 19.132812 26.867188 19.78125 Z M 26.867188 19.78125 " fill-opacity="1" fill-rule="nonzero"/></g><path fill="#ffffff" d="M 15.773438 16.59375 C 15.925781 16.628906 16.082031 16.640625 16.230469 16.617188 C 16.410156 16.589844 16.601562 16.449219 16.714844 16.316406 C 16.960938 16.035156 17.066406 15.699219 17.078125 15.328125 C 17.101562 14.625 16.753906 13.902344 16.1875 13.480469 C 15.589844 13.039062 14.691406 13.039062 14.097656 13.492188 C 13.53125 13.929688 13.28125 14.6875 13.441406 15.375 C 13.667969 16.347656 14.832031 17.082031 15.773438 16.59375 Z M 14.351562 14.070312 C 14.445312 13.972656 14.5 13.941406 14.640625 13.863281 C 14.679688 13.839844 14.703125 13.835938 14.78125 13.8125 C 14.816406 13.800781 14.847656 13.796875 14.886719 13.785156 C 14.90625 13.777344 14.917969 13.777344 14.933594 13.773438 C 14.945312 13.773438 14.949219 13.765625 14.957031 13.765625 C 14.957031 13.765625 14.960938 13.765625 14.960938 13.765625 C 15.113281 13.75 15.269531 13.757812 15.398438 13.785156 C 15.460938 13.796875 15.519531 13.816406 15.582031 13.835938 C 15.628906 13.851562 15.578125 13.828125 15.632812 13.855469 C 15.667969 13.875 15.699219 13.890625 15.734375 13.914062 C 15.855469 13.984375 15.890625 14.015625 16.003906 14.125 C 16.023438 14.148438 16.046875 14.175781 16.070312 14.203125 C 16.109375 14.25 16.074219 14.210938 16.101562 14.242188 C 16.140625 14.300781 16.179688 14.355469 16.210938 14.417969 C 16.226562 14.445312 16.242188 14.480469 16.253906 14.511719 C 16.28125 14.574219 16.261719 14.511719 16.277344 14.558594 C 16.300781 14.617188 16.320312 14.6875 16.34375 14.753906 C 16.359375 14.820312 16.378906 14.886719 16.390625 14.953125 C 16.390625 14.964844 16.390625 14.964844 16.394531 14.972656 C 16.394531 14.976562 16.394531 14.976562 16.394531 14.984375 C 16.398438 15.023438 16.398438 15.0625 16.40625 15.101562 C 16.410156 15.179688 16.40625 15.25 16.398438 15.328125 C 16.398438 15.347656 16.394531 15.359375 16.394531 15.375 C 16.394531 15.375 16.394531 15.378906 16.394531 15.378906 C 16.390625 15.414062 16.382812 15.441406 16.371094 15.476562 C 16.359375 15.507812 16.355469 15.546875 16.34375 15.582031 C 16.339844 15.59375 16.328125 15.632812 16.316406 15.65625 C 16.304688 15.675781 16.28125 15.726562 16.289062 15.726562 C 16.289062 15.734375 16.28125 15.75 16.277344 15.761719 C 16.269531 15.777344 16.25 15.824219 16.242188 15.832031 C 16.210938 15.894531 16.171875 15.953125 16.132812 16.007812 C 16.125 16.019531 16.09375 16.0625 16.09375 16.070312 C 16.070312 16.097656 16.046875 16.121094 16.023438 16.140625 C 15.925781 16.257812 15.855469 16.382812 15.746094 16.488281 C 15.320312 16.484375 14.886719 16.265625 14.558594 16.011719 C 14.453125 15.933594 14.304688 15.792969 14.25 15.714844 C 14.210938 15.660156 14.171875 15.605469 14.136719 15.546875 C 14.121094 15.515625 14.105469 15.488281 14.085938 15.453125 C 14.085938 15.453125 14.082031 15.441406 14.074219 15.429688 C 14.070312 15.417969 14.058594 15.378906 14.058594 15.378906 C 13.902344 14.914062 14.007812 14.40625 14.351562 14.070312 Z M 14.351562 14.070312 " fill-opacity="1" fill-rule="nonzero"/><path fill="#ffffff" d="M 26.277344 10.195312 C 26.15625 10.402344 26.015625 10.601562 25.863281 10.789062 C 25.722656 10.960938 25.554688 11.117188 25.425781 11.304688 C 25.320312 11.460938 25.527344 11.65625 25.683594 11.5625 C 26.078125 11.316406 26.386719 10.828125 26.609375 10.429688 C 26.855469 10 27.039062 9.523438 27.15625 9.042969 C 27.394531 8.070312 27.355469 7.046875 27.027344 6.101562 C 26.96875 5.933594 26.703125 6 26.753906 6.171875 C 27.035156 7.070312 27.050781 8.03125 26.804688 8.941406 C 26.679688 9.382812 26.507812 9.800781 26.277344 10.195312 Z M 26.277344 10.195312 " fill-opacity="1" fill-rule="nonzero"/><path fill="#ffffff" d="M 25.125 11.96875 C 25.097656 11.980469 25.070312 11.988281 25.039062 11.996094 C 24.984375 12.019531 24.957031 12.058594 24.921875 12.109375 C 24.882812 12.164062 24.84375 12.222656 24.8125 12.277344 C 24.738281 12.394531 24.660156 12.507812 24.574219 12.613281 C 24.488281 12.726562 24.386719 12.820312 24.296875 12.925781 C 24.199219 13.035156 24.101562 13.140625 23.992188 13.234375 C 23.941406 13.28125 24.011719 13.351562 24.066406 13.332031 C 24.199219 13.269531 24.328125 13.195312 24.453125 13.117188 C 24.582031 13.039062 24.695312 12.925781 24.800781 12.820312 C 24.910156 12.710938 25.011719 12.589844 25.101562 12.46875 C 25.148438 12.414062 25.179688 12.351562 25.214844 12.289062 C 25.242188 12.246094 25.265625 12.199219 25.257812 12.144531 C 25.257812 12.105469 25.242188 12.070312 25.238281 12.03125 C 25.21875 11.988281 25.167969 11.957031 25.125 11.96875 Z M 25.125 11.96875 " fill-opacity="1" fill-rule="nonzero"/><path fill="#ffffff" d="M 15.726562 1.792969 C 15.878906 1.902344 16.019531 2.019531 16.152344 2.140625 C 16.417969 2.382812 16.667969 2.644531 16.882812 2.9375 C 17.308594 3.519531 17.554688 4.191406 17.863281 4.835938 C 17.871094 4.859375 17.90625 4.847656 17.90625 4.824219 C 17.945312 4.074219 17.585938 3.347656 17.167969 2.742188 C 16.953125 2.425781 16.707031 2.128906 16.421875 1.878906 C 16.289062 1.753906 16.148438 1.644531 16.003906 1.535156 C 15.863281 1.429688 15.671875 1.261719 15.492188 1.234375 C 15.371094 1.21875 15.207031 1.347656 15.308594 1.476562 C 15.414062 1.617188 15.589844 1.695312 15.726562 1.792969 Z M 15.726562 1.792969 " fill-opacity="1" fill-rule="nonzero"/><g clip-path="url(#aae5012ca8)"><path fill="#ffffff" d="M 13.917969 0.613281 C 14.007812 0.625 14.09375 0.648438 14.175781 0.675781 C 14.265625 0.707031 14.355469 0.726562 14.445312 0.757812 C 14.484375 0.777344 14.492188 0.777344 14.539062 0.804688 C 14.578125 0.824219 14.625 0.847656 14.664062 0.871094 C 14.679688 0.882812 14.703125 0.886719 14.71875 0.898438 C 14.730469 0.902344 14.738281 0.910156 14.726562 0.898438 C 14.753906 0.910156 14.78125 0.925781 14.808594 0.9375 C 14.867188 0.953125 14.917969 0.9375 14.964844 0.921875 C 15 0.910156 15.015625 0.882812 15.023438 0.847656 C 15.027344 0.796875 15.027344 0.742188 15 0.695312 C 14.964844 0.648438 14.898438 0.589844 14.847656 0.5625 C 14.753906 0.511719 14.648438 0.472656 14.539062 0.449219 C 14.445312 0.429688 14.332031 0.398438 14.234375 0.410156 C 14.125 0.421875 14.027344 0.445312 13.925781 0.480469 C 13.859375 0.496094 13.839844 0.601562 13.917969 0.613281 Z M 13.917969 0.613281 " fill-opacity="1" fill-rule="nonzero"/></g><path fill="#ffffff" d="M 9.65625 24.089844 C 9.292969 24.15625 8.972656 24.328125 8.628906 24.445312 C 8.261719 24.570312 7.894531 24.652344 7.511719 24.714844 C 7.132812 24.777344 6.75 24.816406 6.363281 24.855469 C 5.996094 24.890625 5.625 24.910156 5.273438 25.027344 C 5.25 25.035156 5.25 25.066406 5.273438 25.074219 C 5.640625 25.175781 6.023438 25.175781 6.402344 25.164062 C 6.808594 25.152344 7.210938 25.125 7.609375 25.0625 C 8 25.007812 8.386719 24.917969 8.761719 24.792969 C 9.132812 24.671875 9.488281 24.542969 9.742188 24.226562 C 9.796875 24.167969 9.746094 24.070312 9.65625 24.089844 Z M 9.65625 24.089844 " fill-opacity="1" fill-rule="nonzero"/><path fill="#ffffff" d="M 11.152344 23.523438 C 11.035156 23.605469 10.910156 23.683594 10.785156 23.746094 C 10.753906 23.761719 10.722656 23.773438 10.695312 23.792969 C 10.675781 23.796875 10.660156 23.808594 10.644531 23.8125 C 10.644531 23.8125 10.636719 23.8125 10.636719 23.8125 C 10.632812 23.8125 10.609375 23.824219 10.617188 23.824219 C 10.574219 23.839844 10.53125 23.851562 10.492188 23.875 C 10.457031 23.890625 10.429688 23.914062 10.402344 23.929688 C 10.347656 23.964844 10.257812 24.050781 10.269531 24.128906 C 10.277344 24.210938 10.414062 24.238281 10.488281 24.234375 C 10.527344 24.226562 10.558594 24.222656 10.597656 24.21875 C 10.648438 24.207031 10.695312 24.1875 10.738281 24.167969 C 10.804688 24.132812 10.867188 24.097656 10.929688 24.066406 C 11.074219 23.980469 11.214844 23.882812 11.347656 23.769531 C 11.40625 23.71875 11.40625 23.625 11.359375 23.566406 C 11.308594 23.511719 11.214844 23.476562 11.152344 23.523438 Z M 11.152344 23.523438 " fill-opacity="1" fill-rule="nonzero"/><path fill="#ffffff" d="M 21.027344 23.320312 C 21.09375 24.066406 21.015625 24.820312 20.808594 25.539062 C 20.707031 25.902344 20.566406 26.253906 20.394531 26.589844 C 20.253906 26.867188 19.957031 27.179688 19.957031 27.492188 C 19.957031 27.539062 20 27.570312 20.039062 27.554688 C 20.363281 27.453125 20.550781 27 20.691406 26.71875 C 20.863281 26.367188 21.007812 25.996094 21.109375 25.617188 C 21.316406 24.855469 21.34375 24.066406 21.226562 23.289062 C 21.203125 23.179688 21.015625 23.207031 21.027344 23.320312 Z M 21.027344 23.320312 " fill-opacity="1" fill-rule="nonzero"/><g clip-path="url(#e5cbb8d215)"><path fill="#ffffff" d="M 19.5625 27.839844 C 19.53125 27.839844 19.492188 27.839844 19.457031 27.839844 C 19.417969 27.839844 19.386719 27.851562 19.34375 27.863281 C 19.300781 27.875 19.257812 27.886719 19.21875 27.90625 C 19.183594 27.925781 19.148438 27.941406 19.117188 27.957031 C 19.046875 27.992188 18.988281 28.023438 18.921875 28.058594 C 18.902344 28.0625 18.886719 28.074219 18.875 28.082031 C 18.847656 28.097656 18.824219 28.121094 18.800781 28.148438 C 18.78125 28.175781 18.761719 28.203125 18.742188 28.226562 C 18.703125 28.277344 18.753906 28.351562 18.8125 28.351562 C 18.847656 28.351562 18.886719 28.351562 18.921875 28.351562 C 18.96875 28.351562 19.007812 28.328125 19.058594 28.304688 C 19.128906 28.269531 19.195312 28.238281 19.265625 28.203125 C 19.300781 28.1875 19.335938 28.175781 19.367188 28.152344 C 19.402344 28.136719 19.429688 28.109375 19.457031 28.085938 C 19.496094 28.058594 19.53125 28.03125 19.558594 27.996094 C 19.582031 27.96875 19.597656 27.941406 19.621094 27.917969 C 19.636719 27.890625 19.601562 27.839844 19.5625 27.839844 Z M 19.5625 27.839844 " fill-opacity="1" fill-rule="nonzero"/></g><path fill="#ffffff" d="M 24.277344 6.503906 C 24.320312 6.644531 24.378906 6.777344 24.417969 6.917969 C 24.492188 7.191406 24.535156 7.480469 24.53125 7.769531 C 24.53125 7.847656 24.574219 7.914062 24.636719 7.953125 C 24.710938 8 24.785156 7.992188 24.855469 7.953125 C 24.921875 7.921875 24.960938 7.84375 24.960938 7.769531 C 24.960938 7.4375 24.910156 7.109375 24.792969 6.800781 C 24.734375 6.644531 24.671875 6.480469 24.566406 6.351562 C 24.519531 6.292969 24.46875 6.234375 24.414062 6.179688 C 24.359375 6.125 24.308594 6.089844 24.230469 6.066406 C 24.199219 6.054688 24.171875 6.085938 24.171875 6.105469 C 24.171875 6.183594 24.183594 6.242188 24.210938 6.3125 C 24.238281 6.375 24.261719 6.441406 24.277344 6.503906 Z M 24.277344 6.503906 " fill-opacity="1" fill-rule="nonzero"/><path fill="#ffffff" d="M 15.683594 14.585938 C 15.6875 14.636719 15.699219 14.675781 15.710938 14.71875 C 15.71875 14.734375 15.722656 14.757812 15.722656 14.777344 C 15.722656 14.785156 15.726562 14.792969 15.726562 14.804688 C 15.726562 14.808594 15.726562 14.808594 15.726562 14.808594 C 15.734375 14.886719 15.738281 14.964844 15.738281 15.042969 C 15.738281 15.066406 15.738281 15.082031 15.734375 15.101562 C 15.734375 15.113281 15.734375 15.117188 15.734375 15.128906 C 15.726562 15.167969 15.71875 15.207031 15.707031 15.246094 C 15.683594 15.335938 15.738281 15.449219 15.828125 15.46875 C 15.917969 15.492188 16.03125 15.441406 16.054688 15.347656 C 16.054688 15.339844 16.054688 15.335938 16.058594 15.328125 C 16.058594 15.328125 16.058594 15.324219 16.058594 15.324219 C 16.101562 15.132812 16.109375 14.9375 16.046875 14.753906 C 16.011719 14.65625 15.980469 14.550781 15.90625 14.484375 C 15.84375 14.421875 15.773438 14.371094 15.699219 14.320312 C 15.65625 14.292969 15.617188 14.351562 15.632812 14.390625 C 15.667969 14.449219 15.675781 14.519531 15.683594 14.585938 Z M 15.992188 15.140625 C 15.984375 15.140625 15.984375 15.132812 15.980469 15.132812 C 16.003906 15.140625 16.003906 15.144531 15.992188 15.140625 Z M 15.941406 15.113281 C 15.933594 15.113281 15.929688 15.113281 15.925781 15.113281 C 15.90625 15.105469 15.90625 15.101562 15.941406 15.113281 Z M 15.941406 15.113281 " fill-opacity="1" fill-rule="nonzero"/></svg>