<svg xmlns="http://www.w3.org/2000/svg" xmlns:xlink="http://www.w3.org/1999/xlink" width="40" zoomAndPan="magnify" viewBox="0 0 30 30.000001" height="40" preserveAspectRatio="xMidYMid meet" version="1.0"><defs><g/><clipPath id="a663079558"><path d="M 2.082031 6 L 13 6 L 13 22 L 2.082031 22 Z M 2.082031 6 " clip-rule="nonzero"/></clipPath><clipPath id="cb3f84189d"><path d="M 10 0.472656 L 13 0.472656 L 13 3 L 10 3 Z M 10 0.472656 " clip-rule="nonzero"/></clipPath><clipPath id="e6251e6782"><path d="M 17 10 L 28 10 L 28 28.78125 L 17 28.78125 Z M 17 10 " clip-rule="nonzero"/></clipPath></defs><path fill="#ffffff" d="M 9.496094 5.722656 C 9.390625 5.722656 9.335938 5.746094 9.328125 5.765625 C 9.328125 5.765625 9.308594 5.820312 9.441406 5.984375 C 9.703125 6.304688 10.039062 6.601562 10.441406 6.871094 C 11.050781 7.289062 11.714844 7.609375 12.421875 7.828125 C 12.625 7.890625 12.804688 7.886719 12.839844 7.820312 C 12.871094 7.765625 12.8125 7.636719 12.695312 7.492188 C 11.929688 6.570312 10.816406 5.929688 9.632812 5.734375 C 9.578125 5.726562 9.535156 5.722656 9.496094 5.722656 Z M 12.683594 8.339844 C 12.558594 8.339844 12.425781 8.316406 12.28125 8.273438 C 11.535156 8.042969 10.824219 7.699219 10.175781 7.257812 C 9.742188 6.964844 9.371094 6.632812 9.082031 6.28125 C 8.871094 6.03125 8.808594 5.796875 8.894531 5.585938 C 9.007812 5.320312 9.304688 5.207031 9.710938 5.273438 C 11 5.488281 12.21875 6.1875 13.054688 7.195312 C 13.382812 7.59375 13.34375 7.875 13.25 8.046875 C 13.144531 8.238281 12.941406 8.339844 12.683594 8.339844 " fill-opacity="1" fill-rule="nonzero"/><path fill="#ffffff" d="M 12.609375 9.613281 C 12.566406 9.613281 12.523438 9.613281 12.476562 9.609375 C 11.433594 9.519531 10.457031 9.144531 9.660156 8.527344 C 9.554688 8.449219 9.539062 8.300781 9.617188 8.199219 C 9.695312 8.097656 9.84375 8.078125 9.945312 8.15625 C 10.671875 8.71875 11.5625 9.058594 12.519531 9.144531 C 12.910156 9.175781 13.304688 8.988281 13.535156 8.652344 C 13.917969 8.097656 13.832031 7.492188 13.28125 6.859375 C 12.15625 5.554688 11.09375 4.972656 9.496094 4.785156 C 8.878906 4.710938 8.433594 5.203125 8.171875 5.625 C 7.964844 5.960938 8.011719 6.421875 8.285156 6.75 C 8.460938 6.960938 8.660156 7.152344 8.871094 7.324219 C 8.972656 7.402344 8.988281 7.550781 8.90625 7.652344 C 8.828125 7.753906 8.679688 7.769531 8.578125 7.6875 C 8.34375 7.5 8.121094 7.285156 7.925781 7.050781 C 7.515625 6.5625 7.457031 5.890625 7.773438 5.378906 C 8.253906 4.605469 8.867188 4.238281 9.550781 4.320312 C 11.257812 4.519531 12.441406 5.167969 13.636719 6.554688 C 14.324219 7.347656 14.425781 8.1875 13.921875 8.917969 C 13.621094 9.355469 13.125 9.613281 12.609375 9.613281 " fill-opacity="1" fill-rule="nonzero"/><g clip-path="url(#a663079558)"><path fill="#ffffff" d="M 4.726562 21.941406 C 4.234375 21.941406 3.738281 21.800781 3.316406 21.523438 C 2.554688 21.019531 2.070312 20.082031 2.085938 19.132812 C 2.097656 18.207031 2.53125 17.367188 2.914062 16.628906 L 5.753906 11.136719 C 5.753906 11.132812 5.757812 11.128906 5.757812 11.125 L 7.960938 6.863281 C 8.019531 6.75 8.160156 6.703125 8.277344 6.765625 C 8.390625 6.824219 8.4375 6.964844 8.375 7.078125 L 6.179688 11.328125 C 6.179688 11.332031 6.175781 11.335938 6.175781 11.339844 L 3.332031 16.839844 C 2.972656 17.539062 2.5625 18.324219 2.550781 19.140625 C 2.542969 19.933594 2.945312 20.714844 3.574219 21.132812 C 4.222656 21.5625 5.121094 21.585938 5.753906 21.191406 C 6.371094 20.808594 6.730469 20.101562 7.050781 19.480469 C 7.96875 17.683594 8.886719 15.890625 9.804688 14.09375 L 10.785156 12.179688 C 10.785156 12.175781 10.789062 12.171875 10.789062 12.167969 C 10.832031 12.085938 10.875 12 10.917969 11.917969 C 10.917969 11.914062 10.921875 11.910156 10.921875 11.90625 C 11.371094 11.027344 11.820312 10.148438 12.273438 9.269531 C 12.332031 9.152344 12.472656 9.109375 12.585938 9.167969 C 12.703125 9.226562 12.746094 9.367188 12.6875 9.480469 C 12.242188 10.355469 11.792969 11.230469 11.347656 12.105469 C 11.34375 12.109375 11.34375 12.117188 11.339844 12.121094 C 11.292969 12.210938 11.246094 12.300781 11.203125 12.390625 C 11.199219 12.394531 11.195312 12.402344 11.191406 12.40625 L 10.21875 14.308594 C 9.300781 16.101562 8.382812 17.898438 7.46875 19.691406 C 7.136719 20.335938 6.726562 21.136719 6 21.589844 C 5.621094 21.824219 5.175781 21.941406 4.726562 21.941406 " fill-opacity="1" fill-rule="nonzero"/></g><path fill="#ffffff" d="M 11.132812 12.246094 C 11.128906 12.246094 11.125 12.246094 11.125 12.246094 C 11 12.242188 10.898438 12.140625 10.898438 12.015625 L 10.898438 12.011719 C 10.914062 11.78125 10.640625 11.558594 10.378906 11.425781 C 9.277344 10.859375 7.949219 10.683594 6.730469 10.953125 C 6.503906 11.003906 6.335938 11.078125 6.253906 11.171875 C 6.167969 11.265625 6.019531 11.277344 5.921875 11.1875 C 5.828125 11.101562 5.820312 10.957031 5.90625 10.859375 C 6.054688 10.691406 6.300781 10.566406 6.628906 10.496094 C 7.953125 10.203125 9.398438 10.394531 10.59375 11.007812 C 11.113281 11.277344 11.394531 11.648438 11.367188 12.027344 C 11.355469 12.152344 11.253906 12.246094 11.132812 12.246094 " fill-opacity="1" fill-rule="nonzero"/><path fill="#ffffff" d="M 9.457031 12.761719 C 8.464844 12.761719 7.476562 12.574219 6.550781 12.210938 C 6.371094 12.136719 6.164062 12.046875 6 11.894531 C 5.789062 11.699219 5.691406 11.4375 5.734375 11.195312 C 5.734375 11.191406 5.738281 11.191406 5.738281 11.1875 C 5.746094 11.140625 5.769531 11.097656 5.800781 11.0625 C 5.894531 10.972656 6.042969 10.972656 6.132812 11.0625 C 6.195312 11.125 6.214844 11.210938 6.195312 11.285156 C 6.183594 11.367188 6.230469 11.472656 6.316406 11.550781 C 6.421875 11.648438 6.578125 11.71875 6.722656 11.777344 C 7.839844 12.214844 9.0625 12.378906 10.257812 12.25 C 10.449219 12.230469 10.707031 12.203125 10.832031 12.113281 C 10.875 12.074219 10.929688 12.050781 10.992188 12.050781 C 11.121094 12.050781 11.226562 12.15625 11.226562 12.285156 C 11.226562 12.359375 11.191406 12.425781 11.136719 12.46875 C 10.910156 12.652344 10.5625 12.6875 10.304688 12.714844 C 10.023438 12.746094 9.742188 12.761719 9.457031 12.761719 " fill-opacity="1" fill-rule="nonzero"/><path fill="#ffffff" d="M 8.097656 14.007812 C 8.03125 14.007812 7.964844 14.03125 7.917969 14.074219 C 7.835938 14.15625 7.824219 14.316406 7.894531 14.40625 C 7.964844 14.496094 8.121094 14.527344 8.21875 14.46875 C 8.273438 14.441406 8.351562 14.347656 8.355469 14.25 C 8.359375 14.222656 8.363281 14.148438 8.25 14.058594 C 8.207031 14.023438 8.152344 14.007812 8.097656 14.007812 Z M 8.105469 14.964844 C 7.882812 14.964844 7.664062 14.871094 7.527344 14.691406 C 7.3125 14.414062 7.339844 13.988281 7.589844 13.742188 C 7.835938 13.496094 8.261719 13.472656 8.539062 13.6875 C 8.738281 13.847656 8.839844 14.054688 8.824219 14.28125 C 8.804688 14.550781 8.625 14.773438 8.457031 14.871094 C 8.351562 14.9375 8.226562 14.964844 8.105469 14.964844 " fill-opacity="1" fill-rule="nonzero"/><path fill="#ffffff" d="M 5.984375 15.40625 C 5.855469 15.40625 5.722656 15.476562 5.667969 15.589844 C 5.59375 15.738281 5.660156 15.960938 5.804688 16.046875 C 5.953125 16.132812 6.179688 16.082031 6.28125 15.941406 C 6.324219 15.882812 6.363281 15.777344 6.332031 15.667969 C 6.308594 15.570312 6.230469 15.488281 6.105469 15.433594 C 6.070312 15.414062 6.027344 15.40625 5.984375 15.40625 Z M 5.976562 16.554688 C 5.835938 16.554688 5.695312 16.519531 5.570312 16.449219 C 5.210938 16.238281 5.066406 15.75 5.25 15.378906 C 5.4375 15.003906 5.921875 14.832031 6.300781 15.007812 C 6.550781 15.121094 6.722656 15.316406 6.785156 15.550781 C 6.84375 15.777344 6.796875 16.027344 6.660156 16.21875 C 6.5 16.4375 6.238281 16.554688 5.976562 16.554688 " fill-opacity="1" fill-rule="nonzero"/><path fill="#ffffff" d="M 4.832031 18.34375 C 4.597656 18.34375 4.363281 18.523438 4.304688 18.75 C 4.246094 18.984375 4.371094 19.261719 4.589844 19.371094 C 4.75 19.453125 4.960938 19.445312 5.117188 19.351562 C 5.226562 19.285156 5.402344 19.121094 5.355469 18.800781 C 5.320312 18.558594 5.09375 18.355469 4.851562 18.34375 C 4.84375 18.34375 4.839844 18.34375 4.832031 18.34375 Z M 4.832031 19.894531 C 4.675781 19.894531 4.519531 19.859375 4.378906 19.789062 C 3.960938 19.582031 3.734375 19.082031 3.851562 18.632812 C 3.96875 18.1875 4.414062 17.859375 4.875 17.878906 C 5.335938 17.898438 5.75 18.273438 5.820312 18.730469 C 5.882812 19.15625 5.710938 19.535156 5.359375 19.75 C 5.203125 19.847656 5.015625 19.894531 4.832031 19.894531 " fill-opacity="1" fill-rule="nonzero"/><g clip-path="url(#cb3f84189d)"><path fill="#ffffff" d="M 11.714844 1.054688 C 11.691406 1.054688 11.671875 1.054688 11.652344 1.058594 C 11.445312 1.09375 11.269531 1.308594 11.28125 1.519531 C 11.292969 1.730469 11.488281 1.925781 11.699219 1.941406 C 11.816406 1.949219 11.996094 1.886719 12.097656 1.761719 C 12.179688 1.660156 12.195312 1.535156 12.152344 1.375 C 12.097656 1.191406 11.902344 1.054688 11.714844 1.054688 Z M 11.714844 2.40625 C 11.699219 2.40625 11.683594 2.40625 11.667969 2.40625 C 11.222656 2.378906 10.835938 1.992188 10.8125 1.542969 C 10.792969 1.09375 11.132812 0.671875 11.574219 0.597656 C 12.019531 0.523438 12.480469 0.816406 12.601562 1.25 C 12.6875 1.550781 12.636719 1.835938 12.460938 2.054688 C 12.265625 2.300781 11.953125 2.40625 11.714844 2.40625 " fill-opacity="1" fill-rule="nonzero"/></g><path fill="#ffffff" d="M 14.664062 4.230469 L 14.667969 4.230469 Z M 13.90625 3.625 C 13.640625 3.625 13.375 3.851562 13.34375 4.125 C 13.308594 4.40625 13.523438 4.710938 13.808594 4.777344 C 13.945312 4.8125 14.078125 4.789062 14.183594 4.710938 C 14.320312 4.617188 14.40625 4.441406 14.433594 4.207031 C 14.449219 4.078125 14.402344 3.941406 14.308594 3.828125 C 14.210938 3.710938 14.078125 3.636719 13.945312 3.625 C 13.933594 3.625 13.921875 3.625 13.90625 3.625 Z M 13.921875 5.261719 C 13.847656 5.261719 13.773438 5.253906 13.699219 5.234375 C 13.183594 5.109375 12.816406 4.585938 12.878906 4.066406 C 12.945312 3.53125 13.449219 3.113281 13.984375 3.160156 C 14.242188 3.179688 14.492188 3.316406 14.667969 3.527344 C 14.84375 3.738281 14.925781 4.003906 14.898438 4.257812 C 14.847656 4.726562 14.628906 4.972656 14.453125 5.09375 C 14.296875 5.203125 14.113281 5.261719 13.921875 5.261719 " fill-opacity="1" fill-rule="nonzero"/><path fill="#ffffff" d="M 18.144531 5.464844 C 18.089844 5.464844 18.03125 5.472656 17.976562 5.488281 C 17.613281 5.582031 17.351562 5.984375 17.417969 6.351562 C 17.484375 6.722656 17.867188 7.011719 18.238281 6.980469 C 18.425781 6.960938 18.683594 6.839844 18.832031 6.613281 C 18.949219 6.429688 18.96875 6.210938 18.886719 5.972656 C 18.78125 5.671875 18.460938 5.464844 18.144531 5.464844 Z M 18.179688 7.449219 C 17.601562 7.449219 17.058594 7.003906 16.957031 6.433594 C 16.851562 5.828125 17.261719 5.1875 17.859375 5.035156 C 18.453125 4.878906 19.125 5.238281 19.328125 5.820312 C 19.492188 6.292969 19.363281 6.652344 19.222656 6.867188 C 19.019531 7.183594 18.648438 7.410156 18.28125 7.445312 C 18.246094 7.449219 18.210938 7.449219 18.179688 7.449219 " fill-opacity="1" fill-rule="nonzero"/><path fill="#ffffff" d="M 21.113281 2.394531 C 21.023438 2.394531 20.9375 2.417969 20.863281 2.457031 C 20.734375 2.523438 20.632812 2.652344 20.585938 2.808594 C 20.539062 2.964844 20.550781 3.125 20.617188 3.253906 C 20.683594 3.378906 20.8125 3.480469 20.96875 3.527344 C 21.125 3.578125 21.289062 3.566406 21.417969 3.496094 C 21.585938 3.40625 21.863281 3.09375 21.660156 2.703125 C 21.59375 2.574219 21.464844 2.472656 21.308594 2.425781 C 21.246094 2.40625 21.179688 2.394531 21.113281 2.394531 Z M 21.160156 4.023438 C 21.050781 4.023438 20.941406 4.007812 20.832031 3.976562 C 20.558594 3.890625 20.328125 3.710938 20.203125 3.472656 C 20.078125 3.238281 20.054688 2.945312 20.140625 2.667969 C 20.222656 2.394531 20.40625 2.167969 20.644531 2.042969 C 20.878906 1.917969 21.171875 1.894531 21.449219 1.980469 C 21.722656 2.0625 21.949219 2.246094 22.074219 2.484375 C 22.410156 3.125 22.019531 3.703125 21.636719 3.910156 C 21.492188 3.984375 21.328125 4.023438 21.160156 4.023438 " fill-opacity="1" fill-rule="nonzero"/><path fill="#ffffff" d="M 21.375 5.777344 C 21.371094 5.777344 21.367188 5.777344 21.363281 5.777344 C 21.246094 5.78125 21.140625 5.832031 21.085938 5.910156 C 21.035156 5.992188 21.027344 6.105469 21.070312 6.21875 C 21.113281 6.328125 21.195312 6.410156 21.289062 6.433594 C 21.390625 6.457031 21.585938 6.378906 21.675781 6.242188 C 21.746094 6.136719 21.738281 6.023438 21.648438 5.898438 C 21.589844 5.824219 21.488281 5.777344 21.375 5.777344 Z M 21.328125 6.90625 C 21.277344 6.90625 21.226562 6.898438 21.179688 6.886719 C 20.9375 6.828125 20.734375 6.640625 20.632812 6.386719 C 20.535156 6.132812 20.558594 5.859375 20.699219 5.652344 C 20.835938 5.445312 21.082031 5.316406 21.355469 5.3125 C 21.625 5.300781 21.878906 5.421875 22.023438 5.625 C 22.230469 5.910156 22.246094 6.230469 22.066406 6.503906 C 21.902344 6.746094 21.597656 6.90625 21.328125 6.90625 " fill-opacity="1" fill-rule="nonzero"/><path fill="#ffffff" d="M 18.910156 11.023438 C 18.730469 11.023438 18.539062 11.003906 18.359375 10.929688 C 18.019531 10.792969 17.730469 10.414062 17.828125 10.019531 C 17.90625 9.691406 18.207031 9.507812 18.457031 9.386719 C 19.800781 8.734375 21.296875 8.433594 22.789062 8.515625 C 23.363281 8.546875 23.734375 8.78125 23.804688 9.15625 C 23.867188 9.511719 23.636719 9.847656 23.148438 10.101562 C 22.324219 10.535156 21.433594 10.828125 20.511719 10.976562 C 20.382812 10.996094 20.265625 10.910156 20.242188 10.78125 C 20.222656 10.652344 20.3125 10.535156 20.4375 10.515625 C 21.3125 10.375 22.152344 10.097656 22.933594 9.6875 C 23.039062 9.632812 23.378906 9.4375 23.34375 9.242188 C 23.3125 9.074219 23.011719 8.996094 22.761719 8.984375 C 21.351562 8.90625 19.933594 9.191406 18.664062 9.808594 C 18.503906 9.882812 18.316406 9.992188 18.28125 10.128906 C 18.246094 10.269531 18.386719 10.4375 18.535156 10.496094 C 18.742188 10.582031 19.003906 10.558594 19.238281 10.539062 C 19.363281 10.53125 19.476562 10.621094 19.488281 10.75 C 19.5 10.878906 19.40625 10.992188 19.277344 11.003906 C 19.164062 11.015625 19.039062 11.023438 18.910156 11.023438 " fill-opacity="1" fill-rule="nonzero"/><path fill="#ffffff" d="M 22.328125 8.105469 C 20.933594 8.105469 19.539062 8.433594 18.25 9.0625 C 17.957031 9.207031 17.648438 9.375 17.421875 9.621094 C 17.222656 9.835938 17.117188 10.085938 17.113281 10.371094 C 17.113281 10.453125 17.128906 10.542969 17.15625 10.644531 L 17.238281 10.925781 C 17.347656 11.308594 17.65625 11.609375 18.050781 11.710938 C 19.636719 12.113281 22.683594 11.625 23.980469 10.484375 C 24.402344 10.113281 24.589844 9.710938 24.539062 9.289062 L 24.535156 9.265625 C 24.484375 8.835938 24.203125 8.46875 23.800781 8.304688 C 23.585938 8.21875 23.363281 8.164062 23.136719 8.144531 C 22.867188 8.121094 22.597656 8.105469 22.328125 8.105469 Z M 19.359375 12.316406 C 18.832031 12.316406 18.339844 12.265625 17.9375 12.164062 C 17.382812 12.023438 16.941406 11.597656 16.785156 11.050781 L 16.707031 10.773438 C 16.664062 10.628906 16.644531 10.492188 16.648438 10.367188 C 16.652344 9.960938 16.796875 9.601562 17.078125 9.300781 C 17.359375 9 17.726562 8.800781 18.046875 8.644531 C 19.660156 7.851562 21.433594 7.519531 23.179688 7.679688 C 23.449219 7.703125 23.71875 7.769531 23.976562 7.871094 C 24.535156 8.097656 24.925781 8.609375 25 9.207031 L 25.003906 9.230469 C 25.074219 9.808594 24.824219 10.363281 24.289062 10.835938 C 23.195312 11.796875 21.066406 12.316406 19.359375 12.316406 " fill-opacity="1" fill-rule="nonzero"/><g clip-path="url(#e6251e6782)"><path fill="#ffffff" d="M 24.101562 28.496094 C 23.253906 28.496094 22.453125 28.21875 21.886719 27.710938 C 20.992188 26.90625 20.71875 25.613281 20.515625 24.671875 C 19.621094 20.449219 18.726562 16.222656 17.828125 12 C 17.800781 11.875 17.882812 11.75 18.007812 11.722656 C 18.132812 11.695312 18.257812 11.777344 18.285156 11.902344 C 19.183594 16.125 20.078125 20.351562 20.976562 24.574219 C 21.214844 25.714844 21.476562 26.714844 22.199219 27.359375 C 22.78125 27.882812 23.667969 28.121094 24.574219 27.996094 C 25.671875 27.84375 26.621094 27.167969 26.988281 26.28125 C 27.375 25.351562 27.171875 24.304688 26.882812 23.132812 L 25.164062 16.039062 C 25.152344 16.003906 25.144531 15.964844 25.136719 15.925781 C 25.136719 15.925781 25.136719 15.921875 25.136719 15.917969 L 23.878906 10.742188 C 23.847656 10.617188 23.925781 10.488281 24.050781 10.457031 C 24.175781 10.429688 24.300781 10.503906 24.332031 10.632812 L 25.585938 15.800781 C 25.589844 15.808594 25.589844 15.8125 25.589844 15.816406 C 25.601562 15.851562 25.609375 15.886719 25.617188 15.925781 L 27.339844 23.019531 C 27.574219 23.988281 27.898438 25.316406 27.417969 26.460938 C 26.988281 27.5 25.898438 28.285156 24.640625 28.457031 C 24.457031 28.484375 24.277344 28.496094 24.101562 28.496094 " fill-opacity="1" fill-rule="nonzero"/></g><path fill="#ffffff" d="M 25.167969 16.058594 Z M 22.25 15.152344 C 21.480469 15.152344 20.738281 15.257812 20.046875 15.46875 C 19.820312 15.535156 19.589844 15.617188 19.421875 15.765625 C 19.292969 15.875 19.179688 16.058594 19.214844 16.230469 C 19.242188 16.347656 19.335938 16.464844 19.472656 16.546875 C 19.628906 16.644531 19.816406 16.695312 19.984375 16.738281 C 21.417969 17.101562 22.835938 17.121094 24.082031 16.789062 C 24.304688 16.730469 24.5625 16.648438 24.773438 16.503906 C 24.964844 16.375 25.183594 16.203125 25.160156 16.035156 C 25.160156 16.035156 25.160156 16.03125 25.160156 16.03125 C 25.160156 16.011719 25.15625 15.996094 25.15625 15.976562 C 25.148438 15.964844 25.144531 15.953125 25.140625 15.9375 C 25.09375 15.808594 24.984375 15.683594 24.839844 15.59375 C 24.65625 15.480469 24.441406 15.421875 24.175781 15.363281 C 23.523438 15.222656 22.878906 15.152344 22.25 15.152344 Z M 22.207031 17.492188 C 21.445312 17.492188 20.660156 17.390625 19.871094 17.191406 C 19.671875 17.140625 19.441406 17.074219 19.230469 16.949219 C 18.976562 16.792969 18.808594 16.574219 18.757812 16.328125 C 18.691406 16.007812 18.828125 15.65625 19.113281 15.410156 C 19.351562 15.203125 19.652344 15.097656 19.914062 15.019531 C 21.246094 14.617188 22.753906 14.578125 24.273438 14.90625 C 24.546875 14.964844 24.832031 15.039062 25.085938 15.199219 C 25.324219 15.34375 25.5 15.554688 25.582031 15.785156 C 25.582031 15.789062 25.582031 15.789062 25.585938 15.792969 C 25.59375 15.816406 25.597656 15.84375 25.597656 15.867188 C 25.597656 15.871094 25.597656 15.871094 25.597656 15.875 C 25.601562 15.886719 25.609375 15.898438 25.613281 15.910156 C 25.617188 15.925781 25.625 15.957031 25.625 15.976562 C 25.683594 16.449219 25.230469 16.757812 25.039062 16.890625 C 24.769531 17.074219 24.464844 17.171875 24.199219 17.242188 C 23.570312 17.410156 22.898438 17.492188 22.207031 17.492188 " fill-opacity="1" fill-rule="nonzero"/><path fill="#ffffff" d="M 22.050781 19.445312 C 21.800781 19.445312 21.546875 19.613281 21.472656 19.851562 C 21.378906 20.136719 21.550781 20.484375 21.832031 20.585938 C 22.109375 20.6875 22.46875 20.527344 22.578125 20.253906 C 22.636719 20.105469 22.628906 19.917969 22.550781 19.765625 C 22.5 19.660156 22.398438 19.523438 22.191406 19.464844 C 22.144531 19.453125 22.097656 19.445312 22.050781 19.445312 Z M 22.003906 21.082031 C 21.894531 21.085938 21.78125 21.066406 21.671875 21.027344 C 21.164062 20.84375 20.859375 20.226562 21.023438 19.710938 C 21.191406 19.191406 21.792969 18.867188 22.316406 19.015625 C 22.605469 19.097656 22.839844 19.289062 22.972656 19.558594 C 23.105469 19.832031 23.121094 20.15625 23.011719 20.429688 C 22.851562 20.828125 22.425781 21.082031 22.003906 21.082031 " fill-opacity="1" fill-rule="nonzero"/><path fill="#ffffff" d="M 24.882812 20.792969 C 24.859375 20.792969 24.839844 20.796875 24.820312 20.800781 C 24.699219 20.835938 24.613281 20.976562 24.632812 21.101562 C 24.652344 21.222656 24.785156 21.328125 24.910156 21.320312 C 24.980469 21.3125 25.085938 21.261719 25.132812 21.183594 C 25.171875 21.121094 25.171875 21.046875 25.136719 20.953125 C 25.097656 20.859375 24.984375 20.792969 24.882812 20.792969 Z M 24.894531 21.785156 C 24.550781 21.785156 24.230469 21.523438 24.171875 21.179688 C 24.109375 20.824219 24.34375 20.453125 24.691406 20.351562 C 25.035156 20.25 25.429688 20.441406 25.570312 20.777344 C 25.664062 21.007812 25.648438 21.242188 25.53125 21.433594 C 25.386719 21.660156 25.128906 21.773438 24.9375 21.785156 C 24.921875 21.785156 24.910156 21.785156 24.894531 21.785156 " fill-opacity="1" fill-rule="nonzero"/><path fill="#ffffff" d="M 22.546875 22.972656 C 22.46875 22.972656 22.390625 23 22.339844 23.054688 C 22.25 23.15625 22.257812 23.347656 22.355469 23.441406 C 22.453125 23.539062 22.648438 23.546875 22.753906 23.453125 C 22.808594 23.40625 22.84375 23.335938 22.84375 23.261719 C 22.84375 23.179688 22.800781 23.097656 22.71875 23.027344 C 22.671875 22.988281 22.613281 22.972656 22.546875 22.972656 Z M 22.5625 23.988281 C 22.367188 23.988281 22.171875 23.917969 22.027344 23.777344 C 21.753906 23.503906 21.734375 23.03125 21.992188 22.746094 C 22.25 22.453125 22.734375 22.421875 23.023438 22.675781 C 23.210938 22.835938 23.3125 23.042969 23.308594 23.265625 C 23.308594 23.472656 23.214844 23.675781 23.058594 23.808594 C 22.917969 23.929688 22.738281 23.988281 22.5625 23.988281 " fill-opacity="1" fill-rule="nonzero"/><path fill="#ffffff" d="M 24.746094 24.34375 C 24.714844 24.34375 24.679688 24.347656 24.648438 24.351562 C 24.445312 24.390625 24.269531 24.546875 24.207031 24.742188 C 24.144531 24.9375 24.199219 25.167969 24.34375 25.3125 C 24.515625 25.492188 24.816406 25.53125 25.03125 25.410156 C 25.152344 25.339844 25.292969 25.183594 25.328125 25.003906 C 25.359375 24.855469 25.316406 24.707031 25.199219 24.5625 C 25.09375 24.425781 24.917969 24.34375 24.746094 24.34375 Z M 24.757812 25.945312 C 24.480469 25.945312 24.203125 25.839844 24.007812 25.640625 C 23.742188 25.371094 23.644531 24.960938 23.761719 24.597656 C 23.878906 24.238281 24.195312 23.960938 24.566406 23.890625 C 24.941406 23.824219 25.335938 23.976562 25.566406 24.273438 C 25.820312 24.59375 25.828125 24.894531 25.789062 25.09375 C 25.722656 25.441406 25.472656 25.695312 25.265625 25.816406 C 25.109375 25.902344 24.933594 25.945312 24.757812 25.945312 " fill-opacity="1" fill-rule="nonzero"/><g fill="#ffffff" fill-opacity="1"><g transform="translate(6.718184, 19.687557)"><g><path d="M 0.234375 -0.15625 C 0.234375 -0.226562 0.25 -0.28125 0.28125 -0.3125 C 0.3125 -0.34375 0.351562 -0.359375 0.40625 -0.359375 C 0.46875 -0.359375 0.515625 -0.34375 0.546875 -0.3125 C 0.578125 -0.28125 0.59375 -0.226562 0.59375 -0.15625 C 0.59375 -0.09375 0.578125 -0.0390625 0.546875 0 C 0.515625 0.03125 0.46875 0.046875 0.40625 0.046875 C 0.351562 0.046875 0.3125 0.03125 0.28125 0 C 0.25 -0.03125 0.234375 -0.0820312 0.234375 -0.15625 Z M 0.234375 -0.15625 "/></g></g></g></svg>