<svg xmlns="http://www.w3.org/2000/svg" xmlns:xlink="http://www.w3.org/1999/xlink" width="40" zoomAndPan="magnify" viewBox="0 0 30 30.000001" height="40" preserveAspectRatio="xMidYMid meet" version="1.0"><defs><clipPath id="839f20d338"><path d="M 1.71875 1.234375 L 14 1.234375 L 14 13 L 1.71875 13 Z M 1.71875 1.234375 " clip-rule="nonzero"/></clipPath><clipPath id="f5a7d66d8b"><path d="M 16 1.234375 L 28.574219 1.234375 L 28.574219 13 L 16 13 Z M 16 1.234375 " clip-rule="nonzero"/></clipPath><clipPath id="1e85aeb77d"><path d="M 1.71875 16 L 14 16 L 14 28 L 1.71875 28 Z M 1.71875 16 " clip-rule="nonzero"/></clipPath><clipPath id="91892ad122"><path d="M 16 16 L 28.574219 16 L 28.574219 28 L 16 28 Z M 16 16 " clip-rule="nonzero"/></clipPath></defs><g clip-path="url(#839f20d338)"><path fill="#ffffff" d="M 11.324219 1.234375 L 4.003906 1.234375 C 2.792969 1.234375 1.804688 2.21875 1.804688 3.433594 L 1.804688 10.75 C 1.804688 11.960938 2.792969 12.949219 4.003906 12.949219 L 11.324219 12.949219 C 12.535156 12.949219 13.519531 11.960938 13.519531 10.75 L 13.519531 3.433594 C 13.519531 2.21875 12.535156 1.234375 11.324219 1.234375 Z M 12.640625 10.75 C 12.640625 11.476562 12.050781 12.070312 11.324219 12.070312 L 4.003906 12.070312 C 3.277344 12.070312 2.683594 11.476562 2.683594 10.75 L 2.683594 3.433594 C 2.683594 2.707031 3.277344 2.113281 4.003906 2.113281 L 11.324219 2.113281 C 12.050781 2.113281 12.640625 2.707031 12.640625 3.433594 Z M 12.640625 10.75 " fill-opacity="1" fill-rule="nonzero"/></g><g clip-path="url(#f5a7d66d8b)"><path fill="#ffffff" d="M 25.992188 1.234375 L 18.671875 1.234375 C 17.460938 1.234375 16.472656 2.21875 16.472656 3.433594 L 16.472656 10.75 C 16.472656 11.960938 17.460938 12.949219 18.671875 12.949219 L 25.992188 12.949219 C 27.203125 12.949219 28.191406 11.960938 28.191406 10.75 L 28.191406 3.433594 C 28.191406 2.21875 27.203125 1.234375 25.992188 1.234375 Z M 27.308594 10.75 C 27.308594 11.476562 26.71875 12.070312 25.992188 12.070312 L 18.671875 12.070312 C 17.945312 12.070312 17.355469 11.476562 17.355469 10.75 L 17.355469 3.433594 C 17.355469 2.707031 17.945312 2.113281 18.671875 2.113281 L 25.992188 2.113281 C 26.71875 2.113281 27.308594 2.707031 27.308594 3.433594 Z M 27.308594 10.75 " fill-opacity="1" fill-rule="nonzero"/></g><g clip-path="url(#1e85aeb77d)"><path fill="#ffffff" d="M 11.324219 16.042969 L 4.003906 16.042969 C 2.792969 16.042969 1.804688 17.03125 1.804688 18.242188 L 1.804688 25.558594 C 1.804688 26.773438 2.792969 27.757812 4.003906 27.757812 L 11.324219 27.757812 C 12.535156 27.757812 13.519531 26.773438 13.519531 25.558594 L 13.519531 18.242188 C 13.519531 17.03125 12.535156 16.042969 11.324219 16.042969 Z M 12.640625 25.5625 C 12.640625 26.289062 12.050781 26.878906 11.324219 26.878906 L 4.003906 26.878906 C 3.277344 26.878906 2.683594 26.289062 2.683594 25.5625 L 2.683594 18.242188 C 2.683594 17.515625 3.277344 16.921875 4.003906 16.921875 L 11.324219 16.921875 C 12.050781 16.921875 12.640625 17.515625 12.640625 18.242188 Z M 12.640625 25.5625 " fill-opacity="1" fill-rule="nonzero"/></g><g clip-path="url(#91892ad122)"><path fill="#ffffff" d="M 25.992188 16.042969 L 18.671875 16.042969 C 17.460938 16.042969 16.472656 17.03125 16.472656 18.242188 L 16.472656 25.558594 C 16.472656 26.773438 17.460938 27.757812 18.671875 27.757812 L 25.992188 27.757812 C 27.203125 27.757812 28.191406 26.773438 28.191406 25.558594 L 28.191406 18.242188 C 28.191406 17.03125 27.203125 16.042969 25.992188 16.042969 Z M 27.308594 25.5625 C 27.308594 26.289062 26.71875 26.878906 25.992188 26.878906 L 18.671875 26.878906 C 17.945312 26.878906 17.355469 26.289062 17.355469 25.5625 L 17.355469 18.242188 C 17.355469 17.515625 17.945312 16.921875 18.671875 16.921875 L 25.992188 16.921875 C 26.71875 16.921875 27.308594 17.515625 27.308594 18.242188 Z M 27.308594 25.5625 " fill-opacity="1" fill-rule="nonzero"/></g><path fill="#ffffff" d="M 11.125 6.652344 L 8.105469 6.652344 L 8.105469 3.628906 C 8.105469 3.386719 7.90625 3.1875 7.664062 3.1875 C 7.421875 3.1875 7.222656 3.386719 7.222656 3.628906 L 7.222656 6.652344 L 4.199219 6.652344 C 3.957031 6.652344 3.761719 6.847656 3.761719 7.09375 C 3.761719 7.335938 3.957031 7.53125 4.199219 7.53125 L 7.222656 7.53125 L 7.222656 10.554688 C 7.222656 10.796875 7.421875 10.996094 7.664062 10.996094 C 7.90625 10.996094 8.105469 10.796875 8.105469 10.554688 L 8.105469 7.53125 L 11.128906 7.53125 C 11.371094 7.53125 11.566406 7.335938 11.566406 7.09375 C 11.566406 6.847656 11.371094 6.652344 11.125 6.652344 Z M 11.125 6.652344 " fill-opacity="1" fill-rule="nonzero"/><path fill="#ffffff" d="M 25.234375 19.386719 C 25.0625 19.214844 24.78125 19.214844 24.609375 19.386719 L 22.472656 21.523438 L 20.335938 19.386719 C 20.164062 19.214844 19.886719 19.214844 19.714844 19.386719 C 19.542969 19.558594 19.542969 19.835938 19.714844 20.007812 L 21.851562 22.144531 L 19.714844 24.28125 C 19.542969 24.453125 19.542969 24.734375 19.714844 24.90625 C 19.800781 24.992188 19.914062 25.03125 20.023438 25.03125 C 20.136719 25.03125 20.25 24.988281 20.335938 24.90625 L 22.472656 22.765625 L 24.613281 24.90625 C 24.699219 24.992188 24.8125 25.03125 24.921875 25.03125 C 25.035156 25.03125 25.148438 24.988281 25.234375 24.90625 C 25.40625 24.734375 25.40625 24.453125 25.234375 24.28125 L 23.097656 22.144531 L 25.234375 20.007812 C 25.40625 19.835938 25.40625 19.558594 25.234375 19.386719 Z M 25.234375 19.386719 " fill-opacity="1" fill-rule="nonzero"/><path fill="#ffffff" d="M 10.421875 19.140625 C 10.25 18.96875 9.972656 18.96875 9.800781 19.140625 L 4.902344 24.039062 C 4.734375 24.210938 4.734375 24.488281 4.902344 24.660156 C 4.992188 24.746094 5.101562 24.789062 5.214844 24.789062 C 5.328125 24.789062 5.441406 24.746094 5.527344 24.660156 L 10.421875 19.761719 C 10.59375 19.59375 10.59375 19.3125 10.421875 19.140625 Z M 10.421875 19.140625 " fill-opacity="1" fill-rule="nonzero"/><path fill="#ffffff" d="M 25.9375 6.652344 L 19.011719 6.652344 C 18.769531 6.652344 18.570312 6.847656 18.570312 7.09375 C 18.570312 7.335938 18.769531 7.53125 19.011719 7.53125 L 25.9375 7.53125 C 26.179688 7.53125 26.375 7.335938 26.375 7.09375 C 26.375 6.847656 26.179688 6.652344 25.9375 6.652344 Z M 25.9375 6.652344 " fill-opacity="1" fill-rule="nonzero"/><path fill="#ffffff" d="M 7.351562 19.8125 C 7.351562 18.949219 6.644531 18.242188 5.777344 18.242188 C 4.914062 18.242188 4.207031 18.945312 4.207031 19.8125 C 4.207031 20.679688 4.914062 21.382812 5.777344 21.382812 C 6.644531 21.382812 7.351562 20.679688 7.351562 19.8125 Z M 5.085938 19.8125 C 5.085938 19.433594 5.398438 19.121094 5.777344 19.121094 C 6.160156 19.121094 6.46875 19.433594 6.46875 19.8125 C 6.46875 20.195312 6.160156 20.503906 5.777344 20.503906 C 5.398438 20.503906 5.085938 20.195312 5.085938 19.8125 Z M 5.085938 19.8125 " fill-opacity="1" fill-rule="nonzero"/><path fill="#ffffff" d="M 9.703125 22.414062 C 8.835938 22.414062 8.128906 23.117188 8.128906 23.984375 C 8.128906 24.847656 8.835938 25.554688 9.703125 25.554688 C 10.566406 25.554688 11.273438 24.847656 11.273438 23.984375 C 11.273438 23.117188 10.566406 22.414062 9.703125 22.414062 Z M 9.703125 24.671875 C 9.320312 24.671875 9.011719 24.363281 9.011719 23.980469 C 9.011719 23.601562 9.320312 23.289062 9.703125 23.289062 C 10.082031 23.289062 10.394531 23.601562 10.394531 23.980469 C 10.394531 24.363281 10.082031 24.671875 9.703125 24.671875 Z M 9.703125 24.671875 " fill-opacity="1" fill-rule="nonzero"/></svg>