<svg xmlns="http://www.w3.org/2000/svg" xmlns:xlink="http://www.w3.org/1999/xlink" width="40" zoomAndPan="magnify" viewBox="0 0 30 30.000001" height="40" preserveAspectRatio="xMidYMid meet" version="1.0"><defs><g/><clipPath id="94267b2d44"><path d="M 8 17 L 23 17 L 23 28.824219 L 8 28.824219 Z M 8 17 " clip-rule="nonzero"/></clipPath><clipPath id="5e3ade994d"><path d="M 7 0.519531 L 22 0.519531 L 22 13 L 7 13 Z M 7 0.519531 " clip-rule="nonzero"/></clipPath><clipPath id="8821e48156"><path d="M 1.003906 7 L 10 7 L 10 23 L 1.003906 23 Z M 1.003906 7 " clip-rule="nonzero"/></clipPath></defs><path fill="#ffffff" d="M 9.179688 21.769531 C 8.703125 21.769531 8.316406 21.382812 8.316406 20.90625 L 8.316406 17.957031 C 8.351562 16.011719 9.582031 14.859375 11.609375 14.859375 L 17.933594 14.859375 C 20.566406 14.859375 22.136719 13.378906 22.136719 10.894531 L 22.136719 7.949219 C 22.136719 7.472656 22.523438 7.082031 23 7.082031 C 23.476562 7.082031 23.863281 7.472656 23.863281 7.949219 L 23.863281 10.828125 C 23.863281 14.351562 21.535156 16.585938 17.933594 16.585938 L 11.609375 16.585938 C 10.25 16.585938 10.054688 17.285156 10.042969 17.972656 L 10.042969 20.90625 C 10.042969 21.382812 9.65625 21.769531 9.179688 21.769531 Z M 9.179688 21.769531 " fill-opacity="1" fill-rule="nonzero"/><g clip-path="url(#94267b2d44)"><path fill="#ffffff" d="M 15.132812 28.390625 C 14.019531 28.390625 12.886719 28.304688 11.804688 28.128906 C 9.683594 27.769531 8.316406 26.140625 8.316406 23.980469 L 8.316406 17.957031 C 8.316406 17.480469 8.703125 17.09375 9.179688 17.09375 C 9.65625 17.09375 10.042969 17.480469 10.042969 17.957031 L 10.042969 23.980469 C 10.042969 25.292969 10.808594 26.207031 12.085938 26.421875 C 14.089844 26.746094 16.285156 26.746094 18.109375 26.410156 C 19.191406 26.226562 19.867188 25.953125 20.1875 25.574219 C 20.445312 25.265625 20.558594 24.789062 20.558594 23.980469 L 20.558594 21.191406 L 15.800781 21.191406 C 15.324219 21.191406 14.9375 20.804688 14.9375 20.328125 C 14.9375 19.851562 15.324219 19.464844 15.800781 19.464844 L 21.421875 19.464844 C 21.898438 19.464844 22.285156 19.851562 22.285156 20.328125 L 22.285156 23.980469 C 22.285156 24.8125 22.195312 25.875 21.503906 26.691406 C 20.902344 27.402344 19.917969 27.851562 18.410156 28.109375 C 17.398438 28.300781 16.277344 28.390625 15.132812 28.390625 Z M 15.132812 28.390625 " fill-opacity="1" fill-rule="nonzero"/></g><path fill="#ffffff" d="M 23.792969 21.195312 L 21.421875 21.195312 C 20.945312 21.195312 20.558594 20.804688 20.558594 20.328125 C 20.558594 19.851562 20.945312 19.464844 21.421875 19.464844 L 23.792969 19.464844 C 25.460938 19.464844 26.25 18.875 26.617188 17.363281 C 27.175781 15.039062 27.175781 13.6875 26.617188 11.335938 C 26.113281 9.242188 25.359375 8.8125 24.382812 8.8125 L 23.863281 8.8125 L 23.863281 10.828125 C 23.863281 11.304688 23.476562 11.726562 23 11.726562 C 22.523438 11.726562 22.136719 11.371094 22.136719 10.894531 L 22.136719 7.949219 C 22.136719 7.472656 22.523438 7.082031 23 7.082031 L 24.382812 7.082031 C 27.058594 7.082031 27.898438 9.28125 28.296875 10.9375 C 28.914062 13.535156 28.914062 15.191406 28.296875 17.765625 C 27.746094 20.039062 26.234375 21.195312 23.792969 21.195312 Z M 23.792969 21.195312 " fill-opacity="1" fill-rule="nonzero"/><path fill="#ffffff" d="M 17.242188 25.800781 C 16.128906 25.800781 15.226562 24.894531 15.226562 23.78125 C 15.226562 22.671875 16.128906 21.769531 17.242188 21.769531 C 18.351562 21.769531 19.257812 22.671875 19.257812 23.78125 C 19.246094 24.898438 18.339844 25.800781 17.242188 25.800781 Z M 17.242188 23.496094 C 17.082031 23.496094 16.953125 23.625 16.953125 23.78125 C 16.953125 24.097656 17.527344 24.101562 17.53125 23.773438 C 17.53125 23.625 17.398438 23.496094 17.242188 23.496094 Z M 17.242188 23.496094 " fill-opacity="1" fill-rule="nonzero"/><path fill="#ffffff" d="M 6.878906 22.058594 C 6.402344 22.058594 6.015625 21.671875 6.015625 21.195312 L 6.015625 18.3125 C 6.015625 14.789062 8.34375 12.554688 11.945312 12.554688 L 18.269531 12.554688 C 19.628906 12.554688 19.824219 11.855469 19.835938 11.167969 L 19.835938 8.234375 C 19.835938 7.757812 20.222656 7.371094 20.699219 7.371094 C 21.175781 7.371094 21.5625 7.757812 21.5625 8.234375 L 21.5625 11.183594 C 21.527344 13.132812 20.296875 14.28125 18.269531 14.28125 L 11.945312 14.28125 C 9.3125 14.28125 7.742188 15.765625 7.742188 18.246094 L 7.742188 21.195312 C 7.742188 21.671875 7.355469 22.058594 6.878906 22.058594 Z M 6.878906 22.058594 " fill-opacity="1" fill-rule="nonzero"/><g clip-path="url(#5e3ade994d)"><path fill="#ffffff" d="M 20.699219 12.050781 C 20.222656 12.050781 19.835938 11.664062 19.835938 11.183594 L 19.835938 5.160156 C 19.835938 3.847656 19.070312 2.933594 17.792969 2.71875 C 15.789062 2.394531 13.59375 2.394531 11.769531 2.730469 C 10.6875 2.914062 10.011719 3.1875 9.691406 3.5625 C 9.429688 3.871094 9.320312 4.347656 9.320312 5.160156 L 9.320312 7.949219 L 14.078125 7.949219 C 14.554688 7.949219 14.941406 8.335938 14.941406 8.8125 C 14.941406 9.289062 14.554688 9.675781 14.078125 9.675781 L 8.457031 9.675781 C 7.980469 9.675781 7.59375 9.289062 7.59375 8.8125 L 7.59375 5.160156 C 7.59375 4.324219 7.683594 3.265625 8.375 2.449219 C 8.976562 1.738281 9.957031 1.285156 11.464844 1.027344 C 13.472656 0.664062 15.882812 0.65625 18.074219 1.015625 C 20.195312 1.375 21.5625 3 21.5625 5.160156 L 21.5625 11.183594 C 21.5625 11.664062 21.175781 12.050781 20.699219 12.050781 Z M 20.699219 12.050781 " fill-opacity="1" fill-rule="nonzero"/></g><g clip-path="url(#8821e48156)"><path fill="#ffffff" d="M 6.878906 22.058594 L 5.496094 22.058594 C 2.820312 22.058594 1.980469 19.859375 1.582031 18.207031 C 0.964844 15.605469 0.964844 13.949219 1.582031 11.375 C 2.132812 9.101562 3.644531 7.949219 6.085938 7.949219 L 8.457031 7.949219 C 8.933594 7.949219 9.320312 8.335938 9.320312 8.8125 C 9.320312 9.289062 8.933594 9.675781 8.457031 9.675781 L 6.085938 9.675781 C 4.417969 9.675781 3.628906 10.265625 3.261719 11.777344 C 2.703125 14.105469 2.703125 15.457031 3.261719 17.804688 C 3.765625 19.898438 4.519531 20.328125 5.496094 20.328125 L 6.015625 20.328125 L 6.015625 18.3125 C 6.015625 17.835938 6.402344 17.414062 6.878906 17.414062 C 7.355469 17.414062 7.742188 17.769531 7.742188 18.246094 L 7.742188 21.195312 C 7.742188 21.671875 7.355469 22.058594 6.878906 22.058594 Z M 6.878906 22.058594 " fill-opacity="1" fill-rule="nonzero"/></g><path fill="#ffffff" d="M 12.636719 7.371094 C 11.527344 7.371094 10.621094 6.46875 10.621094 5.359375 C 10.632812 4.242188 11.535156 3.339844 12.636719 3.339844 C 13.75 3.339844 14.652344 4.246094 14.652344 5.359375 C 14.652344 6.46875 13.75 7.371094 12.636719 7.371094 Z M 12.636719 5.066406 C 12.476562 5.066406 12.351562 5.199219 12.347656 5.367188 C 12.347656 5.667969 12.925781 5.675781 12.925781 5.359375 C 12.925781 5.203125 12.792969 5.066406 12.636719 5.066406 Z M 12.636719 5.066406 " fill-opacity="1" fill-rule="nonzero"/><g fill="#ffffff" fill-opacity="1"><g transform="translate(13.786546, 15.784385)"><g><path d="M 0.578125 0 L 0.5625 -0.109375 C 0.519531 -0.0546875 0.476562 -0.0195312 0.4375 0 C 0.40625 0.0078125 0.359375 0.015625 0.296875 0.015625 C 0.222656 0.015625 0.164062 -0.00390625 0.125 -0.046875 C 0.0820312 -0.0859375 0.0625 -0.140625 0.0625 -0.203125 C 0.0625 -0.359375 0.179688 -0.441406 0.421875 -0.453125 L 0.5625 -0.453125 L 0.5625 -0.5 C 0.5625 -0.5625 0.546875 -0.601562 0.515625 -0.625 C 0.492188 -0.65625 0.453125 -0.671875 0.390625 -0.671875 C 0.328125 -0.671875 0.257812 -0.648438 0.1875 -0.609375 L 0.15625 -0.703125 C 0.1875 -0.722656 0.222656 -0.738281 0.265625 -0.75 C 0.316406 -0.757812 0.363281 -0.765625 0.40625 -0.765625 C 0.488281 -0.765625 0.550781 -0.742188 0.59375 -0.703125 C 0.644531 -0.660156 0.671875 -0.597656 0.671875 -0.515625 L 0.671875 0 Z M 0.328125 -0.078125 C 0.398438 -0.078125 0.453125 -0.0976562 0.484375 -0.140625 C 0.523438 -0.179688 0.546875 -0.234375 0.546875 -0.296875 L 0.546875 -0.375 L 0.4375 -0.359375 C 0.34375 -0.359375 0.273438 -0.34375 0.234375 -0.3125 C 0.203125 -0.289062 0.1875 -0.253906 0.1875 -0.203125 C 0.1875 -0.160156 0.195312 -0.128906 0.21875 -0.109375 C 0.25 -0.0859375 0.285156 -0.078125 0.328125 -0.078125 Z M 0.328125 -0.078125 "/></g></g><g transform="translate(14.57026, 15.784385)"><g><path d="M 0.46875 0.015625 C 0.414062 0.015625 0.367188 0.00390625 0.328125 -0.015625 C 0.296875 -0.0351562 0.265625 -0.0625 0.234375 -0.09375 C 0.234375 -0.0507812 0.234375 -0.0078125 0.234375 0.03125 L 0.234375 0.34375 L 0.125 0.34375 L 0.125 -0.75 L 0.21875 -0.75 L 0.234375 -0.65625 C 0.265625 -0.695312 0.296875 -0.722656 0.328125 -0.734375 C 0.367188 -0.753906 0.414062 -0.765625 0.46875 -0.765625 C 0.570312 -0.765625 0.648438 -0.726562 0.703125 -0.65625 C 0.753906 -0.59375 0.78125 -0.5 0.78125 -0.375 C 0.78125 -0.25 0.753906 -0.148438 0.703125 -0.078125 C 0.648438 -0.015625 0.570312 0.015625 0.46875 0.015625 Z M 0.453125 -0.671875 C 0.378906 -0.671875 0.320312 -0.648438 0.28125 -0.609375 C 0.25 -0.566406 0.234375 -0.5 0.234375 -0.40625 L 0.234375 -0.375 C 0.234375 -0.269531 0.25 -0.191406 0.28125 -0.140625 C 0.320312 -0.0976562 0.378906 -0.078125 0.453125 -0.078125 C 0.523438 -0.078125 0.578125 -0.101562 0.609375 -0.15625 C 0.648438 -0.207031 0.671875 -0.28125 0.671875 -0.375 C 0.671875 -0.46875 0.648438 -0.539062 0.609375 -0.59375 C 0.578125 -0.644531 0.523438 -0.671875 0.453125 -0.671875 Z M 0.453125 -0.671875 "/></g></g><g transform="translate(15.433791, 15.784385)"><g><path d="M 0.578125 0 L 0.5625 -0.109375 C 0.519531 -0.0546875 0.476562 -0.0195312 0.4375 0 C 0.40625 0.0078125 0.359375 0.015625 0.296875 0.015625 C 0.222656 0.015625 0.164062 -0.00390625 0.125 -0.046875 C 0.0820312 -0.0859375 0.0625 -0.140625 0.0625 -0.203125 C 0.0625 -0.359375 0.179688 -0.441406 0.421875 -0.453125 L 0.5625 -0.453125 L 0.5625 -0.5 C 0.5625 -0.5625 0.546875 -0.601562 0.515625 -0.625 C 0.492188 -0.65625 0.453125 -0.671875 0.390625 -0.671875 C 0.328125 -0.671875 0.257812 -0.648438 0.1875 -0.609375 L 0.15625 -0.703125 C 0.1875 -0.722656 0.222656 -0.738281 0.265625 -0.75 C 0.316406 -0.757812 0.363281 -0.765625 0.40625 -0.765625 C 0.488281 -0.765625 0.550781 -0.742188 0.59375 -0.703125 C 0.644531 -0.660156 0.671875 -0.597656 0.671875 -0.515625 L 0.671875 0 Z M 0.328125 -0.078125 C 0.398438 -0.078125 0.453125 -0.0976562 0.484375 -0.140625 C 0.523438 -0.179688 0.546875 -0.234375 0.546875 -0.296875 L 0.546875 -0.375 L 0.4375 -0.359375 C 0.34375 -0.359375 0.273438 -0.34375 0.234375 -0.3125 C 0.203125 -0.289062 0.1875 -0.253906 0.1875 -0.203125 C 0.1875 -0.160156 0.195312 -0.128906 0.21875 -0.109375 C 0.25 -0.0859375 0.285156 -0.078125 0.328125 -0.078125 Z M 0.328125 -0.078125 "/></g></g></g></svg>